<?xml version="1.0" encoding="UTF-8" standalone="no"?>
<svg width="35px" height="34px" viewBox="0 0 35 34" version="1.1" xmlns="http://www.w3.org/2000/svg" xmlns:xlink="http://www.w3.org/1999/xlink" xmlns:sketch="http://www.bohemiancoding.com/sketch/ns">
    <!-- Generator: Sketch 3.1.1 (8761) - http://www.bohemiancoding.com/sketch -->
    <title>logo-cmr</title>
    <desc>Created with Sketch.</desc>
    <defs></defs>
    <g id="CMR-Guides" stroke="none" stroke-width="1" fill="none" fill-rule="evenodd" sketch:type="MSPage">
        <g id="1.0-CMR-guides" sketch:type="MSArtboardGroup" transform="translate(-107.000000, -25.000000)">
            <g id="logo-cmr" sketch:type="MSLayerGroup" transform="translate(107.000000, 25.000000)">
                <path d="M6.38093097,7.91402413 C6.6787661,6.67357816 10.2570578,2.59248954 15.6522505,0.870596803 C21.0463757,-0.850228425 27.2016352,2.57007184 27.2016352,2.57007184 L28.2830223,0.76171084 C28.3812332,0.540736384 28.6566506,0.409432722 28.9331355,0.409432722 C29.3088989,0.409432722 29.6216791,0.682715141 29.6814597,1.04139831 L32.2819127,7.81474575 C32.3801235,8.09229821 32.5754778,8.52890957 32.5082247,8.73173637 C32.4121488,9.01996392 32.2221321,9.15233509 31.9669974,9.20891309 L24.3033471,10.6244306 C23.7994826,10.6287007 23.4589471,10.2892327 23.4589471,9.86970144 C23.4589471,9.79817831 23.4867023,9.66473962 23.4867023,9.66473962 L24.5905071,7.43044235 C24.5905071,7.43044235 22.9038422,5.65410663 19.2967278,5.26766821 C16.3813595,4.95488795 14.1129019,5.44914482 12.2735831,6.14943102 C10.7587872,6.72588612 7.59468921,8.74774901 7.59468921,8.74774901 C7.46765558,8.84275735 7.31073169,8.89826784 7.14099769,8.89826784 C6.72146648,8.89826784 6.35531074,8.55666482 6.35531074,8.13713361 C6.35531074,8.09336572 6.38093097,7.91402413 6.38093097,7.91402413 L6.38093097,7.91402413 Z" id="Fill-1" fill="#F0CA00" sketch:type="MSShapeGroup"></path>
                <path d="M17.3022999,33.0724463 C16.0671914,33.3916316 10.7840872,32.1479831 6.73182132,28.1939281 C2.67848795,24.2377381 2.80979161,17.1985808 2.80979161,17.1985808 L0.705730495,17.0918298 C0.46447336,17.10891 0.218946187,16.9274334 0.0897775445,16.6829737 C-0.0874290237,16.3509783 0.00757931707,15.9474597 0.295806868,15.7254178 L5.05476398,10.2501618 C5.25545576,10.0323899 5.54795334,9.65555904 5.75932022,9.62033123 C6.05929037,9.56909078 6.26425218,9.67477421 6.43398619,9.87333097 L11.2826141,15.975215 C11.5228037,16.4182314 11.3818925,16.878328 11.0125342,17.0758172 C10.9495511,17.10891 10.8182475,17.1473403 10.8182475,17.1473403 L8.32668043,17.2209985 C8.32668043,17.2209985 7.55166858,19.5449666 8.90313554,22.9108238 C9.9951977,25.6319054 11.4971835,27.4029036 12.9788866,28.6977926 C14.1979824,29.7663695 17.4698988,31.6088908 17.4698988,31.6088908 C17.6118776,31.6772114 17.7357087,31.7892999 17.8157719,31.9398187 C18.0121936,32.3102445 17.8819575,32.7938263 17.5115317,32.9913155 C17.4731014,33.0105307 17.3022999,33.0724463 17.3022999,33.0724463 L17.3022999,33.0724463 Z" id="Fill-3" fill="#A3A50F" sketch:type="MSShapeGroup"></path>
                <path d="M32.8983994,10.2185635 C33.8239301,11.0960563 35.569308,16.2361143 34.3619548,21.7679482 C33.1556692,27.3008497 27.1167682,30.9207742 27.1167682,30.9207742 L28.1415773,32.7611605 C28.283556,32.9575822 28.2600708,33.2607549 28.1212946,33.5020121 C27.9334129,33.8265349 27.5405695,33.9599736 27.1989664,33.83294 L20.033843,32.6981775 C19.7434805,32.644802 19.2684388,32.594629 19.12646,32.4355701 C18.9247007,32.2081906 18.9054855,31.9776086 18.9834137,31.7288789 L21.5892043,24.3844139 C21.837934,23.9446 22.3023006,23.8207689 22.6652538,24.0300007 C22.7271694,24.0662961 22.8285828,24.1581019 22.8285828,24.1581019 L24.212075,26.2301377 C24.212075,26.2301377 26.5936886,25.6568851 28.73191,22.7255042 C30.4602078,20.3577682 31.1668991,18.1469562 31.4807468,16.2030215 C31.7390841,14.6028248 31.5693501,10.8515966 31.5693501,10.8515966 C31.5512025,10.6946727 31.5810927,10.5313438 31.6664935,10.3840275 C31.8757253,10.0200068 32.3550371,9.87482548 32.7179903,10.0840573 C32.7553531,10.1054075 32.8983994,10.2185635 32.8983994,10.2185635 L32.8983994,10.2185635 Z" id="Fill-5" fill="#142530" sketch:type="MSShapeGroup"></path>
            </g>
        </g>
    </g>
</svg>